<svg width="20" height="34.61538" viewBox="0 0 26 32" fill="none" stroke="#ffffff" xmlns="http://www.w3.org/2000/svg">
<path fill-rule="evenodd" clip-rule="evenodd" d="M13.9561 1.0299C13.7201 0.88643 13.4126 0.961394 13.2691 1.19734L11.0427 4.85866L0.315703 22.4996C0.267484 22.5789 0.242287 22.67 0.242932 22.7628L0.297087 30.5464C0.298293 30.7197 0.389189 30.8801 0.537295 30.9701C0.685401 31.0602 0.869586 31.0671 1.02404 30.9884L7.95968 27.4552C8.04237 27.4131 8.11171 27.3488 8.15993 27.2695L18.8869 9.62855L21.1133 5.96723C21.2568 5.73128 21.1818 5.4237 20.9459 5.28023L13.9561 1.0299ZM12.1569 4.951L13.8637 2.14412L19.9991 5.87488L18.2923 8.68177L12.1569 4.951ZM11.6374 5.80544L17.7727 9.5362L7.37926 26.6286L1.29143 29.7299L1.2439 22.8978L11.6374 5.80544ZM9.75721 31.0429H25.7572V30.0429H9.75721L9.75721 31.0429Z" fill="black"/>
</svg>
