<svg width="583" height="583" viewBox="0 0 583 583" fill="none" xmlns="http://www.w3.org/2000/svg">
<rect x="1" y="1" width="581" height="581" fill="white" stroke="black"/>
<path d="M1 408.031L73.625 357L146.25 408.031H291.5H436.75L509.375 357L582 408.031V582H1V408.031Z" fill="#D9D9D9"/>
<circle cx="291.5" cy="307.5" r="198.5" fill="#FF7B42"/>
<path d="M1 463.154L146.25 357L291.5 463.154L436.75 357L582 463.154V582H1V463.154Z" fill="black"/>
<path d="M112.381 110.834L139.515 136.719L131.18 145.696L107.555 123.159L109.371 121.644L124.205 153.207L115.53 162.55L83.6572 149.557L85.003 147.594L108.555 170.061L100.22 179.038L73.0859 153.154L86.6607 138.534L116.387 151.414L113.359 154.675L98.8066 125.454L112.381 110.834Z" fill="black"/>
<path d="M157.549 126.596C154.439 128.78 151.353 130.173 148.293 130.774C145.259 131.357 142.439 131.158 139.831 130.179C137.252 129.18 135.106 127.429 133.394 124.924C131.664 122.392 130.791 119.727 130.775 116.928C130.787 114.109 131.595 111.363 133.199 108.689C134.83 105.996 137.201 103.558 140.311 101.374C143.421 99.1906 146.492 97.8076 149.526 97.2251C152.587 96.6236 155.407 96.8221 157.987 97.8207C160.594 98.8001 162.763 100.556 164.493 103.088C166.205 105.592 167.055 108.253 167.043 111.072C167.059 113.871 166.251 116.617 164.62 119.31C163.016 121.984 160.659 124.413 157.549 126.596ZM152.329 118.96C153.421 118.193 154.203 117.359 154.676 116.457C155.177 115.535 155.364 114.568 155.238 113.557C155.139 112.527 154.733 111.489 154.018 110.443C153.284 109.37 152.459 108.605 151.542 108.15C150.652 107.675 149.694 107.513 148.667 107.664C147.667 107.796 146.621 108.245 145.53 109.011C144.466 109.758 143.684 110.592 143.183 111.514C142.683 112.436 142.482 113.412 142.581 114.442C142.706 115.453 143.127 116.482 143.841 117.527C144.575 118.601 145.387 119.375 146.276 119.85C147.193 120.305 148.166 120.458 149.193 120.307C150.22 120.156 151.265 119.707 152.329 118.96Z" fill="black"/>
<path d="M162.168 88.3881L173.797 82.5771L179.757 90.9448L187.892 107.671L176.532 113.348L168.331 96.4868L162.168 88.3881ZM186.416 75.6008L191.117 85.268C190.016 85.5947 189.048 85.9292 188.214 86.2716C187.365 86.584 186.628 86.8966 186.002 87.2095C184.869 87.7757 183.912 88.5145 183.132 89.4258C182.338 90.3072 181.883 91.4289 181.767 92.791C181.681 94.1381 182.112 95.7859 183.059 97.7343L179.822 96.2221C179.216 94.2146 178.729 92.2598 178.359 90.3577C178.005 88.4106 177.895 86.584 178.029 84.8776C178.148 83.1413 178.615 81.5855 179.428 80.2101C180.242 78.8348 181.543 77.7001 183.332 76.8061C183.78 76.5826 184.256 76.3816 184.763 76.2032C185.254 75.9948 185.805 75.794 186.416 75.6008Z" fill="black"/>
<path d="M193.238 73.1671L205.324 69.2648L210.9 80.3367L215.847 96.0776L203.761 99.9799L198.229 82.3787L193.238 73.1671ZM216.426 64.7344C219.09 63.874 221.528 63.6823 223.739 64.1592C225.941 64.6043 227.838 65.638 229.431 67.2603C231.046 68.8405 232.258 70.9185 233.067 73.4943L237.924 88.949L225.839 92.8513L221.521 79.1138C221.042 77.5874 220.244 76.5491 219.127 75.9988C218.043 75.4383 216.739 75.4039 215.217 75.8955C214.138 76.2438 213.272 76.7685 212.619 77.4698C211.988 78.129 211.596 78.9386 211.443 79.8985C211.281 80.8267 211.379 81.8631 211.739 83.0079L207.601 82.3476C207.106 79.215 207.182 76.4581 207.832 74.0768C208.471 71.6637 209.54 69.6724 211.038 68.1028C212.536 66.5332 214.332 65.4104 216.426 64.7344Z" fill="black"/>
<path d="M237.614 59.7266L244.089 59.8501L250.102 57.4147L255.307 86.2995L242.819 88.6114L237.614 59.7266ZM243.592 57.0944C241.494 57.4828 239.715 57.2868 238.253 56.5065C236.792 55.7262 235.901 54.4503 235.582 52.6788C235.263 50.9074 235.651 49.3948 236.746 48.1412C237.841 46.8876 239.437 46.0667 241.535 45.6783C243.665 45.2839 245.445 45.4799 246.874 46.2663C248.335 47.0466 249.226 48.3224 249.545 50.0939C249.864 51.8654 249.476 53.3779 248.381 54.6315C247.319 55.8791 245.722 56.7 243.592 57.0944Z" fill="black"/>
<path d="M259.23 56.2049L271.912 55.524L274.548 67.6501L275.409 84.1276L262.728 84.8085L261.765 66.3836L259.23 56.2049ZM283.798 53.9846C286.594 53.8345 289.003 54.2726 291.026 55.299C293.047 56.292 294.627 57.7761 295.765 59.7513C296.935 61.6914 297.59 64.0096 297.731 66.7059L298.576 82.8838L285.894 83.5647L285.143 69.1843C285.059 67.5865 284.546 66.379 283.602 65.5618C282.691 64.7427 281.437 64.3761 279.839 64.4619C278.708 64.5226 277.738 64.8084 276.93 65.3191C276.154 65.7947 275.572 66.4769 275.184 67.3656C274.795 68.221 274.632 69.2479 274.695 70.4463L270.851 68.7499C271.153 65.5959 271.916 62.9511 273.14 60.8158C274.362 58.6472 275.894 56.996 277.738 55.8622C279.581 54.7284 281.601 54.1025 283.798 53.9846Z" fill="black"/>
<path d="M328.048 78.9502L328.602 74.2327L329.163 72.8902L330.103 64.8953L329.828 63.8045L330.547 57.6966L343.155 59.2195L340.691 80.1752C340.29 83.5851 339.1 86.4295 337.12 88.7085C335.137 91.0207 332.526 92.6695 329.289 93.6551C326.052 94.6406 322.315 94.8776 318.079 94.3659C315.366 94.0381 312.892 93.3867 310.657 92.4117C308.455 91.4407 306.258 90.1512 304.064 88.5431L305.144 79.3564C307.02 81.094 309.074 82.4668 311.305 83.475C313.573 84.454 315.915 85.0894 318.33 85.3812C321.176 85.725 323.425 85.4426 325.075 84.534C326.726 83.6254 327.717 81.7641 328.048 78.9502ZM316.336 81.3631C313.622 81.0353 311.269 80.2138 309.275 78.8986C307.286 77.5503 305.794 75.8256 304.799 73.7245C303.837 71.6273 303.508 69.2877 303.812 66.7055C304.119 64.0901 304.982 61.8944 306.399 60.1182C307.853 58.3129 309.701 57.0084 311.944 56.2049C314.19 55.3683 316.67 55.1138 319.384 55.4416C321.435 55.6894 323.252 56.2278 324.832 57.0567C326.446 57.8895 327.821 58.8951 328.958 60.0732C330.128 61.2554 331.073 62.4943 331.794 63.79C332.518 65.0527 333.029 66.2727 333.327 67.4503C333.625 68.6278 333.725 69.6304 333.628 70.4581C333.491 71.6167 332.99 72.8824 332.124 74.2551C331.291 75.6318 330.133 76.9189 328.649 78.1163C327.166 79.3137 325.379 80.2394 323.288 80.8934C321.235 81.5183 318.917 81.6749 316.336 81.3631ZM321.735 73.5542C323.389 73.754 324.876 73.5307 326.193 72.884C327.511 72.2374 328.622 71.2132 329.525 69.8114C328.943 68.1966 328.084 66.9346 326.949 66.0252C325.818 65.0828 324.442 64.5137 322.821 64.3178C321.662 64.1779 320.615 64.2361 319.679 64.4923C318.779 64.7194 318.041 65.1506 317.463 65.7858C316.918 66.4251 316.587 67.2413 316.47 68.2345C316.357 69.1945 316.491 70.0501 316.873 70.8013C317.254 71.5525 317.854 72.1621 318.672 72.6302C319.522 73.1023 320.543 73.4103 321.735 73.5542Z" fill="black"/>
<path d="M391.652 65.2769C394.838 66.4637 397.362 68.0088 399.225 69.912C401.13 71.7955 402.324 73.9298 402.807 76.3149C403.301 78.6686 403.076 81.146 402.133 83.7469C401.19 86.3479 399.773 88.3988 397.881 89.8995C396.001 91.3689 393.728 92.2116 391.061 92.4277C388.437 92.624 385.532 92.1287 382.346 90.9419L367.493 85.409L370.919 75.9609L384.975 81.1971C386.162 81.6392 387.192 81.6848 388.064 81.3337C388.935 80.9827 389.564 80.2744 389.951 79.209C390.348 78.1122 390.322 77.1595 389.87 76.3511C389.43 75.5114 388.617 74.8704 387.43 74.4283L374.404 69.5761L381.816 66.1481L370.482 97.4068L358.394 92.9037L371.176 57.6496L391.652 65.2769Z" fill="black"/>
<path d="M417.798 120.504L421.589 110.959L424.924 108.048L425.735 103.711L432.076 95.5495L443.455 102.239L434.605 113.681L429.177 127.193L417.798 120.504ZM427.209 109.391C425.399 111.884 423.348 113.791 421.056 115.111C418.81 116.42 416.452 117.083 413.984 117.102C411.545 117.137 409.147 116.462 406.79 115.077C404.376 113.658 402.565 111.858 401.354 109.678C400.173 107.514 399.636 105.13 399.744 102.526C399.881 99.938 400.702 97.3278 402.208 94.695C403.731 92.0332 405.567 89.9998 407.715 88.5947C409.892 87.2065 412.2 86.4948 414.639 86.4596C417.107 86.4413 419.548 87.1416 421.962 88.5605C424.319 89.9457 426.087 91.7201 427.269 93.8837C428.495 96.0353 429.112 98.4471 429.12 101.119C429.143 103.762 428.506 106.519 427.209 109.391ZM413.243 101.182C412.697 102.136 412.395 103.1 412.338 104.071C412.327 105.031 412.542 105.931 412.983 106.77C413.453 107.627 414.148 108.325 415.068 108.865C416.016 109.423 417.06 109.746 418.199 109.836C419.338 109.926 420.445 109.803 421.52 109.468C422.64 109.122 423.602 108.547 424.407 107.744C424.695 106.637 424.709 105.505 424.45 104.348C424.219 103.207 423.783 102.158 423.14 101.2C422.498 100.242 421.702 99.4847 420.754 98.9273C419.834 98.3868 418.891 98.1223 417.925 98.134C416.987 98.1626 416.101 98.4347 415.269 98.9505C414.465 99.4831 413.789 100.227 413.243 101.182Z" fill="black"/>
<path d="M454.918 139.755L457.95 136.098L459.148 135.28L464.286 129.083L464.652 128.015L468.577 123.281L478.245 131.516L464.777 147.759C462.586 150.402 460.045 152.135 457.155 152.957C454.244 153.805 451.172 153.75 447.94 152.791C444.708 151.833 441.468 149.971 438.22 147.204C436.139 145.431 434.434 143.519 433.105 141.467C431.801 139.437 430.673 137.141 429.723 134.58L435.627 127.46C436.243 129.954 437.205 132.241 438.513 134.318C439.868 136.392 441.471 138.218 443.324 139.795C445.506 141.654 447.532 142.658 449.401 142.805C451.27 142.953 453.109 141.936 454.918 139.755ZM443.852 135.32C441.771 133.547 440.259 131.559 439.316 129.354C438.394 127.124 438.092 124.852 438.408 122.539C438.75 120.247 439.751 118.1 441.41 116.098C443.091 114.071 445.005 112.702 447.153 111.992C449.347 111.278 451.596 111.202 453.901 111.764C456.227 112.301 458.431 113.456 460.511 115.228C462.085 116.568 463.303 118.022 464.168 119.591C465.058 121.181 465.655 122.784 465.96 124.401C466.29 126.039 466.402 127.602 466.296 129.087C466.211 130.547 465.971 131.854 465.578 133.008C465.184 134.161 464.722 135.059 464.19 135.7C463.445 136.598 462.338 137.385 460.869 138.06C459.426 138.757 457.76 139.199 455.873 139.386C453.986 139.574 451.993 139.365 449.896 138.761C447.846 138.153 445.831 137.006 443.852 135.32ZM452.601 131.739C453.87 132.82 455.229 133.452 456.679 133.636C458.128 133.82 459.611 133.573 461.126 132.893C461.521 131.216 461.494 129.682 461.045 128.292C460.616 126.877 459.781 125.639 458.537 124.58C457.649 123.824 456.745 123.295 455.826 122.993C454.954 122.688 454.104 122.642 453.276 122.857C452.474 123.093 451.754 123.596 451.116 124.366C450.499 125.11 450.145 125.903 450.053 126.745C449.962 127.586 450.129 128.429 450.554 129.273C451.005 130.139 451.688 130.961 452.601 131.739Z" fill="black"/>
<path d="M473.03 170.948C470.729 168.222 469.144 165.362 468.273 162.367C467.45 159.375 467.38 156.502 468.064 153.747C468.774 150.97 470.287 148.578 472.604 146.568C474.896 144.581 477.403 143.444 480.126 143.156C482.87 142.894 485.603 143.392 488.323 144.651C491.043 145.91 493.499 147.839 495.692 150.437C497.992 153.163 499.395 155.961 499.899 158.833C500.403 161.704 500.066 164.534 498.886 167.321C497.731 170.087 495.768 172.671 492.998 175.073L477.196 156.351L481.616 152.518L492.645 165.586L489.017 164.232C489.891 163.253 490.495 162.289 490.827 161.339C491.159 160.389 491.221 159.454 491.01 158.533C490.847 157.616 490.4 156.724 489.669 155.858C488.852 154.89 487.939 154.248 486.931 153.932C485.943 153.641 484.922 153.644 483.865 153.943C482.855 154.245 481.884 154.8 480.953 155.608C479.744 156.656 478.95 157.808 478.57 159.063C478.237 160.323 478.329 161.698 478.847 163.19C479.365 164.682 480.344 166.282 481.785 167.989C483.182 169.644 484.738 171.074 486.453 172.279C488.214 173.487 490.043 174.415 491.942 175.063L486.502 179.779C483.993 179.132 481.555 178.026 479.187 176.461C476.867 174.9 474.814 173.062 473.03 170.948Z" fill="black"/>
</svg>
